<svg xmlns="http://www.w3.org/2000/svg" xmlns:xlink="http://www.w3.org/1999/xlink" xmlns:xodm="http://www.corel.com/coreldraw/odm/2003" xml:space="preserve" width="349.25mm" height="349.25mm" style="shape-rendering:geometricPrecision; text-rendering:geometricPrecision; image-rendering:optimizeQuality; fill-rule:evenodd; clip-rule:evenodd" viewBox="0 0 25673.97 25673.97">
 <defs>
  <style type="text/css">
   <![CDATA[
    .fil0 {fill:#E6E6E6}
   ]]>
  </style>
 </defs>
 <g id="&#x421;&#x43B;&#x43E;&#x439;_x0020_1">
  <metadata id="CorelCorpID_0Corel-Layer"></metadata>
  <path class="fil0" d="M778 12058.98c429.68,0 778,348.32 778,778 0,429.68 -348.32,778 -778,778 -429.68,0 -778,-348.32 -778,-778 0,-429.68 348.32,-778 778,-778zm24117.97 0c429.68,0 778,348.32 778,778 0,429.68 -348.32,778 -778,778 -429.68,0 -778,-348.32 -778,-778 0,-429.68 348.32,-778 778,-778zm-23505.71 -3094.59c415.03,111.21 661.33,537.81 550.12,952.84 -111.21,415.04 -537.81,661.34 -952.84,550.13 -415.04,-111.21 -661.34,-537.81 -550.13,-952.85 111.21,-415.03 537.81,-661.33 952.85,-550.12zm23296.17 6242.19c415.03,111.21 661.33,537.81 550.12,952.84 -111.21,415.03 -537.81,661.33 -952.84,550.12 -415.04,-111.21 -661.33,-537.81 -550.12,-952.84 111.21,-415.04 537.81,-661.33 952.84,-550.12zm-21903.84 -9072.87c372.11,214.84 499.61,690.65 284.77,1062.76 -214.84,372.11 -690.66,499.61 -1062.76,284.77 -372.12,-214.84 -499.61,-690.66 -284.77,-1062.77 214.84,-372.11 690.65,-499.6 1062.76,-284.76zm20886.78 12058.98c372.11,214.84 499.6,690.65 284.76,1062.77 -214.84,372.11 -690.65,499.6 -1062.76,284.76 -372.12,-214.84 -499.61,-690.65 -284.77,-1062.76 214.85,-372.12 690.65,-499.61 1062.77,-284.77zm-18809.25 -14432.85c303.82,303.83 303.82,796.43 0,1100.26 -303.82,303.82 -796.43,303.82 -1100.25,0 -303.83,-303.83 -303.83,-796.43 -0.01,-1100.26 303.83,-303.82 796.43,-303.82 1100.26,0zm17053.99 17053.99c303.82,303.82 303.82,796.43 0,1100.25 -303.83,303.83 -796.43,303.83 -1100.26,0 -303.83,-303.83 -303.82,-796.43 0,-1100.25 303.84,-303.83 796.43,-303.83 1100.26,0zm-14432.85 -18809.25c214.84,372.12 87.35,847.93 -284.76,1062.77 -372.11,214.84 -847.93,87.34 -1062.76,-284.76 -214.85,-372.12 -87.35,-847.93 284.76,-1062.77 372.11,-214.84 847.93,-87.34 1062.76,284.76zm12058.99 20886.78c214.84,372.11 87.35,847.92 -284.77,1062.76 -372.11,214.84 -847.92,87.35 -1062.76,-284.76 -214.85,-372.12 -87.35,-847.93 284.76,-1062.77 372.12,-214.84 847.93,-87.35 1062.77,284.77zm-9072.87 -21903.84c111.2,415.04 -135.09,841.64 -550.13,952.84 -415.03,111.21 -841.64,-135.09 -952.84,-550.12 -111.21,-415.04 135.09,-841.64 550.12,-952.85 415.04,-111.21 841.64,135.1 952.85,550.12zm6242.19 23296.17c111.21,415.04 -135.09,841.64 -550.12,952.85 -415.03,111.21 -841.64,-135.09 -952.84,-550.13 -111.22,-415.04 135.09,-841.64 550.12,-952.84 415.04,-111.2 841.64,135.09 952.84,550.12zm-3094.59 -23505.72c0,429.68 -348.32,778 -778,778 -429.68,0 -778,-348.32 -778,-778 0,-429.68 348.32,-778 778,-778 429.68,0 778,348.32 778,778zm0 24117.97c0,429.68 -348.32,778 -778,778 -429.68,0 -778,-348.32 -778,-778 0,-429.68 348.32,-778 778,-778 429.68,0 778,348.32 778,778zm3094.59 -23505.72c-111.21,415.04 -537.81,661.34 -952.84,550.13 -415.04,-111.21 -661.33,-537.81 -550.12,-952.85 111.21,-415.03 537.81,-661.33 952.84,-550.12 415.03,111.21 661.33,537.81 550.12,952.84zm-6242.19 23296.18c-111.21,415.03 -537.81,661.33 -952.85,550.12 -415.03,-111.21 -661.33,-537.81 -550.12,-952.84 111.21,-415.04 537.81,-661.34 952.84,-550.13 415.04,111.21 661.34,537.81 550.13,952.85zm9072.87 -21903.84c-214.84,372.11 -690.65,499.6 -1062.77,284.76 -372.11,-214.84 -499.6,-690.65 -284.76,-1062.76 214.84,-372.11 690.65,-499.61 1062.76,-284.77 372.12,214.84 499.61,690.66 284.77,1062.77zm-12058.98 20886.78c-214.84,372.11 -690.66,499.61 -1062.77,284.77 -372.11,-214.84 -499.61,-690.66 -284.77,-1062.77 214.84,-372.11 690.66,-499.6 1062.76,-284.77 372.12,214.85 499.61,690.66 284.78,1062.77zm14432.85 -18809.25c-303.82,303.82 -796.42,303.82 -1100.26,-0.01 -303.82,-303.82 -303.82,-796.43 0,-1100.25 303.83,-303.82 796.43,-303.82 1100.25,-0.01 303.83,303.83 303.83,796.43 0.01,1100.26zm-17053.99 17053.98c-303.82,303.82 -796.43,303.83 -1100.25,0 -303.83,-303.82 -303.83,-796.43 -0.01,-1100.26 303.83,-303.82 796.43,-303.82 1100.26,0 303.83,303.83 303.83,796.43 0,1100.26zm18809.25 -14432.85c-372.11,214.84 -847.92,87.34 -1062.77,-284.77 -214.83,-372.11 -87.34,-847.92 284.77,-1062.76 372.11,-214.84 847.93,-87.34 1062.76,284.76 214.84,372.11 87.35,847.93 -284.76,1062.77zm-20886.78 12058.99c-372.11,214.83 -847.93,87.34 -1062.77,-284.77 -214.84,-372.11 -87.34,-847.94 284.76,-1062.77 372.12,-214.84 847.93,-87.34 1062.77,284.76 214.84,372.12 87.35,847.94 -284.76,1062.77zm21903.84 -9072.87c-415.04,111.21 -841.64,-135.09 -952.85,-550.13 -111.2,-415.02 135.09,-841.63 550.13,-952.84 415.03,-111.21 841.64,135.1 952.84,550.12 111.21,415.03 -135.09,841.64 -550.12,952.85zm-23296.17 6242.2c-415.03,111.2 -841.64,-135.1 -952.85,-550.13 -111.21,-415.04 135.1,-841.65 550.12,-952.86 415.04,-111.2 841.64,135.1 952.84,550.13 111.22,415.04 -135.09,841.64 -550.12,952.86z"></path>
 </g>
</svg>