<?xml version="1.0" encoding="utf-8"?>
<!-- Generator: Adobe Illustrator 25.4.1, SVG Export Plug-In . SVG Version: 6.00 Build 0)  -->
<svg version="1.1" id="Layer_1" xmlns="http://www.w3.org/2000/svg" xmlns:xlink="http://www.w3.org/1999/xlink" x="0px" y="0px"
	 viewBox="0 0 172.1 20" style="enable-background:new 0 0 172.1 20;" xml:space="preserve">
<style type="text/css">
	.st0{enable-background:new    ;}
	.st1{fill:#FFFFFF;}
	.st2{fill:#17629A;}
	.st3{fill:#FEFEFE;}
	.st4{fill:#FDFEFE;}
	.st5{fill:#FAFCFB;}
	.st6{fill:#F8FBF9;}
	.st7{fill:#3C769F;}
	.st8{fill:#3E78A1;}
	.st9{fill:#F0F5F5;}
	.st10{fill:#3474A4;}
	.st11{fill:#5286A9;}
	.st12{fill:#3575A4;}
	.st13{fill:#427CA3;}
	.st14{fill:#6D98B4;}
	.st15{fill:#6795B3;}
	.st16{fill:#1A6196;}
	.st17{fill:#EBF3F4;}
	.st18{fill:#E5EEEF;}
	.st19{fill:#447CA3;}
	.st20{fill:#447BA2;}
	.st21{fill:#18629B;}
	.st22{fill:#3573A0;}
</style>
<g>
	<g class="st0">
		<path class="st1" d="M25.7,8.9c-0.2,0.4-0.5,0.7-0.9,0.9c-0.4,0.2-0.9,0.3-1.5,0.3h-1.1v2.7h-1.8V5.2h2.9c0.6,0,1.1,0.1,1.5,0.3
			c0.4,0.2,0.7,0.5,0.9,0.9C25.9,6.8,26,7.2,26,7.7C26,8.1,25.9,8.5,25.7,8.9z M23.9,8.4c0.2-0.2,0.3-0.4,0.3-0.7
			c0-0.3-0.1-0.5-0.3-0.7c-0.2-0.2-0.4-0.2-0.8-0.2h-1v1.9h1C23.5,8.6,23.7,8.6,23.9,8.4z"/>
		<path class="st1" d="M32.4,10.3h-4.1c0,0.4,0.1,0.7,0.4,0.9c0.2,0.2,0.5,0.3,0.8,0.3c0.4,0,0.8-0.2,0.9-0.6h1.9
			c-0.1,0.4-0.3,0.8-0.5,1.1c-0.3,0.3-0.6,0.6-1,0.7s-0.8,0.3-1.3,0.3c-0.6,0-1.1-0.1-1.5-0.4s-0.8-0.6-1.1-1.1s-0.4-1-0.4-1.6
			c0-0.6,0.1-1.2,0.4-1.6s0.6-0.8,1-1.1s1-0.4,1.5-0.4c0.6,0,1.1,0.1,1.5,0.4c0.4,0.2,0.8,0.6,1,1.1c0.2,0.5,0.4,1,0.4,1.6
			C32.5,9.9,32.5,10.1,32.4,10.3z M30.6,9.2c0-0.3-0.1-0.6-0.3-0.8c-0.2-0.2-0.5-0.3-0.8-0.3c-0.3,0-0.6,0.1-0.8,0.3
			c-0.2,0.2-0.3,0.4-0.4,0.8H30.6z"/>
		<path class="st1" d="M36,7c0.3-0.2,0.7-0.3,1.1-0.3v2h-0.5c-0.5,0-0.8,0.1-1,0.3c-0.2,0.2-0.3,0.5-0.3,1v2.8h-1.8v-6h1.8v1
			C35.4,7.5,35.7,7.2,36,7z"/>
		<path class="st1" d="M40.9,8.3h-1v4.5h-1.8V8.3h-0.7V6.8h0.7V6.6c0-0.7,0.2-1.3,0.6-1.7c0.4-0.4,1-0.6,1.8-0.6c0.1,0,0.2,0,0.3,0
			v1.6c-0.3,0-0.6,0-0.7,0.2s-0.2,0.3-0.2,0.7v0.1h1V8.3z"/>
		<path class="st1" d="M47.2,10.3h-4.1c0,0.4,0.1,0.7,0.4,0.9s0.5,0.3,0.8,0.3c0.4,0,0.8-0.2,0.9-0.6h1.9c-0.1,0.4-0.3,0.8-0.5,1.1
			c-0.3,0.3-0.6,0.6-1,0.7c-0.4,0.2-0.8,0.3-1.3,0.3c-0.6,0-1.1-0.1-1.5-0.4c-0.5-0.3-0.8-0.6-1.1-1.1s-0.4-1-0.4-1.6
			c0-0.6,0.1-1.2,0.4-1.6c0.2-0.5,0.6-0.8,1-1.1c0.4-0.3,1-0.4,1.5-0.4c0.6,0,1.1,0.1,1.5,0.4c0.4,0.2,0.8,0.6,1,1.1
			c0.2,0.5,0.4,1,0.4,1.6C47.3,9.9,47.3,10.1,47.2,10.3z M45.4,9.2c0-0.3-0.1-0.6-0.3-0.8s-0.5-0.3-0.8-0.3c-0.3,0-0.6,0.1-0.8,0.3
			c-0.2,0.2-0.3,0.4-0.4,0.8H45.4z"/>
		<path class="st1" d="M48.2,8.2c0.2-0.5,0.6-0.8,1-1.1s1-0.4,1.5-0.4c0.7,0,1.4,0.2,1.9,0.6c0.5,0.4,0.8,1,1,1.7h-1.9
			c-0.2-0.5-0.5-0.7-0.9-0.7c-0.3,0-0.6,0.1-0.8,0.4c-0.2,0.3-0.3,0.6-0.3,1.1c0,0.5,0.1,0.9,0.3,1.1c0.2,0.3,0.5,0.4,0.8,0.4
			c0.5,0,0.8-0.2,0.9-0.7h1.9c-0.2,0.7-0.5,1.3-1,1.7s-1.1,0.6-1.8,0.6c-0.6,0-1.1-0.1-1.5-0.4s-0.8-0.6-1-1.1
			c-0.2-0.5-0.4-1-0.4-1.6C47.9,9.2,48,8.6,48.2,8.2z"/>
		<path class="st1" d="M57.9,11.3v1.6H57c-0.7,0-1.2-0.2-1.5-0.5c-0.4-0.3-0.5-0.9-0.5-1.6V8.3h-0.7V6.8h0.7V5.3h1.8v1.5h1.2v1.5
			h-1.2v2.4c0,0.2,0,0.3,0.1,0.4c0.1,0.1,0.2,0.1,0.4,0.1H57.9z"/>
		<path class="st1" d="M67.1,12.9L65.6,10h-0.4v2.9h-1.8V5.2h3c0.6,0,1.1,0.1,1.5,0.3s0.7,0.5,0.9,0.9c0.2,0.4,0.3,0.8,0.3,1.2
			c0,0.5-0.1,1-0.4,1.4c-0.3,0.4-0.7,0.7-1.2,0.8l1.7,3H67.1z M65.1,8.7h1.1c0.3,0,0.6-0.1,0.7-0.2c0.2-0.2,0.2-0.4,0.2-0.7
			c0-0.3-0.1-0.5-0.2-0.7c-0.2-0.2-0.4-0.2-0.7-0.2h-1.1V8.7z"/>
		<path class="st1" d="M75.7,10.3h-4.1c0,0.4,0.1,0.7,0.4,0.9s0.5,0.3,0.8,0.3c0.4,0,0.8-0.2,0.9-0.6h1.9c-0.1,0.4-0.3,0.8-0.5,1.1
			c-0.3,0.3-0.6,0.6-1,0.7c-0.4,0.2-0.8,0.3-1.3,0.3c-0.6,0-1.1-0.1-1.5-0.4c-0.5-0.3-0.8-0.6-1.1-1.1s-0.4-1-0.4-1.6
			c0-0.6,0.1-1.2,0.4-1.6c0.2-0.5,0.6-0.8,1-1.1c0.4-0.3,1-0.4,1.5-0.4c0.6,0,1.1,0.1,1.5,0.4c0.4,0.2,0.8,0.6,1,1.1
			c0.2,0.5,0.4,1,0.4,1.6C75.8,9.9,75.8,10.1,75.7,10.3z M73.9,9.2c0-0.3-0.1-0.6-0.3-0.8s-0.5-0.3-0.8-0.3c-0.3,0-0.6,0.1-0.8,0.3
			c-0.2,0.2-0.3,0.4-0.4,0.8H73.9z"/>
		<path class="st1" d="M79.7,8.3h-1v4.5h-1.8V8.3h-0.7V6.8h0.7V6.6c0-0.7,0.2-1.3,0.6-1.7c0.4-0.4,1-0.6,1.8-0.6c0.1,0,0.2,0,0.3,0
			v1.6c-0.3,0-0.6,0-0.7,0.2s-0.2,0.3-0.2,0.7v0.1h1V8.3z"/>
		<path class="st1" d="M83.1,7c0.3-0.2,0.7-0.3,1.1-0.3v2h-0.5c-0.4,0-0.8,0.1-1,0.3c-0.2,0.2-0.3,0.5-0.3,1v2.8h-1.8v-6h1.8v1
			C82.5,7.5,82.8,7.2,83.1,7z"/>
		<path class="st1" d="M85.1,5.9c-0.2-0.2-0.3-0.4-0.3-0.7c0-0.3,0.1-0.5,0.3-0.7c0.2-0.2,0.5-0.3,0.8-0.3c0.3,0,0.6,0.1,0.8,0.3
			C86.9,4.6,87,4.9,87,5.2c0,0.3-0.1,0.5-0.3,0.7c-0.2,0.2-0.5,0.3-0.8,0.3C85.6,6.2,85.3,6.1,85.1,5.9z M86.8,6.8v6H85v-6H86.8z"/>
		<path class="st1" d="M91.5,7c0.3,0.2,0.6,0.4,0.7,0.7V6.8H94v6c0,0.6-0.1,1.1-0.3,1.5c-0.2,0.5-0.5,0.8-1,1.1
			c-0.4,0.3-1,0.4-1.6,0.4c-0.9,0-1.6-0.2-2.1-0.6c-0.5-0.4-0.9-1-0.9-1.7h1.8c0.1,0.2,0.2,0.4,0.4,0.5s0.5,0.2,0.8,0.2
			c0.4,0,0.7-0.1,0.9-0.3s0.3-0.6,0.3-1.1V12c-0.2,0.3-0.4,0.5-0.7,0.7c-0.3,0.2-0.7,0.3-1.1,0.3c-0.5,0-0.9-0.1-1.3-0.4
			c-0.4-0.3-0.7-0.6-0.9-1.1s-0.3-1-0.3-1.6c0-0.6,0.1-1.2,0.3-1.6s0.5-0.8,0.9-1.1c0.4-0.3,0.8-0.4,1.3-0.4
			C90.8,6.7,91.1,6.8,91.5,7z M91.8,8.7c-0.2-0.3-0.6-0.4-0.9-0.4S90.2,8.5,90,8.7c-0.2,0.3-0.4,0.6-0.4,1.1c0,0.5,0.1,0.8,0.4,1.1
			c0.2,0.3,0.6,0.4,0.9,0.4s0.7-0.1,0.9-0.4c0.2-0.3,0.4-0.6,0.4-1.1S92.1,9,91.8,8.7z"/>
		<path class="st1" d="M100.8,10.3h-4.1c0,0.4,0.1,0.7,0.4,0.9s0.5,0.3,0.8,0.3c0.4,0,0.8-0.2,0.9-0.6h1.9c-0.1,0.4-0.3,0.8-0.5,1.1
			c-0.3,0.3-0.6,0.6-1,0.7c-0.4,0.2-0.8,0.3-1.3,0.3c-0.6,0-1.1-0.1-1.5-0.4c-0.5-0.3-0.8-0.6-1.1-1.1s-0.4-1-0.4-1.6
			c0-0.6,0.1-1.2,0.4-1.6c0.2-0.5,0.6-0.8,1-1.1c0.4-0.3,1-0.4,1.5-0.4c0.6,0,1.1,0.1,1.5,0.4c0.4,0.2,0.8,0.6,1,1.1
			c0.2,0.5,0.4,1,0.4,1.6C100.8,9.9,100.8,10.1,100.8,10.3z M99,9.2c0-0.3-0.1-0.6-0.3-0.8s-0.5-0.3-0.8-0.3c-0.3,0-0.6,0.1-0.8,0.3
			c-0.2,0.2-0.3,0.4-0.4,0.8H99z"/>
		<path class="st1" d="M104.4,7c0.3-0.2,0.7-0.3,1.1-0.3v2h-0.5c-0.4,0-0.8,0.1-1,0.3c-0.2,0.2-0.3,0.5-0.3,1v2.8h-1.8v-6h1.8v1
			C103.8,7.5,104.1,7.2,104.4,7z"/>
		<path class="st1" d="M106.3,8.2c0.2-0.5,0.5-0.8,0.9-1.1c0.4-0.3,0.8-0.4,1.3-0.4c0.4,0,0.8,0.1,1.1,0.3c0.3,0.2,0.6,0.4,0.7,0.7
			V6.8h1.8v6h-1.8V12c-0.2,0.3-0.4,0.5-0.7,0.7c-0.3,0.2-0.7,0.3-1.1,0.3c-0.5,0-0.9-0.1-1.3-0.4c-0.4-0.3-0.7-0.6-0.9-1.1
			s-0.3-1-0.3-1.6C105.9,9.2,106,8.6,106.3,8.2z M110,8.7c-0.2-0.3-0.6-0.4-0.9-0.4s-0.7,0.1-0.9,0.4c-0.2,0.3-0.4,0.6-0.4,1.1
			c0,0.5,0.1,0.8,0.4,1.1c0.2,0.3,0.6,0.4,0.9,0.4s0.7-0.1,0.9-0.4c0.2-0.3,0.4-0.6,0.4-1.1S110.2,9,110,8.7z"/>
		<path class="st1" d="M116.7,11.3v1.6h-0.9c-0.7,0-1.2-0.2-1.5-0.5c-0.4-0.3-0.5-0.9-0.5-1.6V8.3H113V6.8h0.7V5.3h1.8v1.5h1.2v1.5
			h-1.2v2.4c0,0.2,0,0.3,0.1,0.4c0.1,0.1,0.2,0.1,0.4,0.1H116.7z"/>
		<path class="st1" d="M118.9,12.6c-0.5-0.3-0.8-0.6-1.1-1.1s-0.4-1-0.4-1.6c0-0.6,0.1-1.2,0.4-1.6c0.3-0.5,0.6-0.8,1.1-1.1
			s1-0.4,1.6-0.4s1.1,0.1,1.6,0.4s0.8,0.6,1.1,1.1c0.3,0.5,0.4,1,0.4,1.6s-0.1,1.2-0.4,1.6s-0.6,0.8-1.1,1.1c-0.5,0.3-1,0.4-1.6,0.4
			C119.8,12.9,119.3,12.8,118.9,12.6z M121.3,10.9c0.2-0.3,0.4-0.6,0.4-1.1c0-0.5-0.1-0.9-0.4-1.1s-0.5-0.4-0.9-0.4
			c-0.4,0-0.6,0.1-0.9,0.4c-0.2,0.3-0.3,0.6-0.3,1.1c0,0.5,0.1,0.9,0.3,1.1c0.2,0.3,0.5,0.4,0.9,0.4C120.8,11.3,121,11.2,121.3,10.9
			z"/>
		<path class="st1" d="M127,7c0.3-0.2,0.7-0.3,1.1-0.3v2h-0.5c-0.4,0-0.8,0.1-1,0.3c-0.2,0.2-0.3,0.5-0.3,1v2.8h-1.8v-6h1.8v1
			C126.5,7.5,126.7,7.2,127,7z"/>
		<path class="st1" d="M132.4,12.7c-0.4-0.2-0.8-0.4-1-0.8c-0.3-0.4-0.4-0.8-0.4-1.3h1.9c0,0.3,0.1,0.5,0.3,0.6
			c0.2,0.1,0.4,0.2,0.6,0.2c0.3,0,0.5-0.1,0.6-0.2s0.2-0.3,0.2-0.5c0-0.2-0.1-0.3-0.2-0.5S134.2,10,134,10c-0.2-0.1-0.4-0.2-0.8-0.3
			c-0.5-0.2-0.9-0.3-1.2-0.5c-0.3-0.2-0.6-0.4-0.8-0.7S131,7.9,131,7.4c0-0.7,0.2-1.3,0.7-1.7c0.5-0.4,1.1-0.6,2-0.6
			c0.8,0,1.5,0.2,2,0.6c0.5,0.4,0.8,1,0.8,1.7h-2c0-0.2-0.1-0.4-0.3-0.6c-0.2-0.1-0.4-0.2-0.6-0.2c-0.2,0-0.4,0.1-0.5,0.2
			s-0.2,0.3-0.2,0.5c0,0.2,0.1,0.4,0.3,0.6c0.2,0.1,0.6,0.3,1.1,0.4c0.5,0.2,0.9,0.3,1.2,0.5c0.3,0.2,0.6,0.4,0.8,0.7
			c0.2,0.3,0.3,0.7,0.3,1.1c0,0.4-0.1,0.8-0.3,1.2c-0.2,0.4-0.5,0.6-0.9,0.8c-0.4,0.2-0.9,0.3-1.4,0.3
			C133.3,12.9,132.8,12.8,132.4,12.7z"/>
		<path class="st1" d="M143.2,10.3h-4.1c0,0.4,0.1,0.7,0.4,0.9s0.5,0.3,0.8,0.3c0.4,0,0.8-0.2,0.9-0.6h1.9c-0.1,0.4-0.3,0.8-0.5,1.1
			c-0.3,0.3-0.6,0.6-1,0.7c-0.4,0.2-0.8,0.3-1.3,0.3c-0.6,0-1.1-0.1-1.5-0.4c-0.5-0.3-0.8-0.6-1.1-1.1s-0.4-1-0.4-1.6
			c0-0.6,0.1-1.2,0.4-1.6c0.2-0.5,0.6-0.8,1-1.1c0.4-0.3,1-0.4,1.5-0.4c0.6,0,1.1,0.1,1.5,0.4c0.4,0.2,0.8,0.6,1,1.1
			c0.2,0.5,0.4,1,0.4,1.6C143.2,9.9,143.2,10.1,143.2,10.3z M141.4,9.2c0-0.3-0.1-0.6-0.3-0.8s-0.5-0.3-0.8-0.3
			c-0.3,0-0.6,0.1-0.8,0.3c-0.2,0.2-0.3,0.4-0.4,0.8H141.4z"/>
		<path class="st1" d="M146.8,7c0.3-0.2,0.7-0.3,1.1-0.3v2h-0.5c-0.4,0-0.8,0.1-1,0.3c-0.2,0.2-0.3,0.5-0.3,1v2.8h-1.8v-6h1.8v1
			C146.2,7.5,146.5,7.2,146.8,7z"/>
		<path class="st1" d="M151.3,11.1l1.3-4.3h1.9l-2.1,6h-2.2l-2.1-6h1.9L151.3,11.1z"/>
		<path class="st1" d="M155.4,5.9c-0.2-0.2-0.3-0.4-0.3-0.7c0-0.3,0.1-0.5,0.3-0.7c0.2-0.2,0.5-0.3,0.8-0.3c0.3,0,0.6,0.1,0.8,0.3
			c0.2,0.2,0.3,0.4,0.3,0.7c0,0.3-0.1,0.5-0.3,0.7c-0.2,0.2-0.5,0.3-0.8,0.3C155.9,6.2,155.6,6.1,155.4,5.9z M157.1,6.8v6h-1.8v-6
			H157.1z"/>
		<path class="st1" d="M158.4,8.2c0.2-0.5,0.6-0.8,1-1.1s1-0.4,1.5-0.4c0.7,0,1.4,0.2,1.9,0.6c0.5,0.4,0.8,1,1,1.7h-1.9
			c-0.2-0.5-0.5-0.7-0.9-0.7c-0.3,0-0.6,0.1-0.8,0.4c-0.2,0.3-0.3,0.6-0.3,1.1c0,0.5,0.1,0.9,0.3,1.1c0.2,0.3,0.5,0.4,0.8,0.4
			c0.5,0,0.8-0.2,0.9-0.7h1.9c-0.2,0.7-0.5,1.3-1,1.7s-1.1,0.6-1.8,0.6c-0.6,0-1.1-0.1-1.5-0.4s-0.8-0.6-1-1.1
			c-0.2-0.5-0.4-1-0.4-1.6C158,9.2,158.2,8.6,158.4,8.2z"/>
		<path class="st1" d="M170.3,10.3h-4.1c0,0.4,0.1,0.7,0.4,0.9s0.5,0.3,0.8,0.3c0.4,0,0.8-0.2,0.9-0.6h1.9c-0.1,0.4-0.3,0.8-0.5,1.1
			c-0.3,0.3-0.6,0.6-1,0.7c-0.4,0.2-0.8,0.3-1.3,0.3c-0.6,0-1.1-0.1-1.5-0.4c-0.5-0.3-0.8-0.6-1.1-1.1s-0.4-1-0.4-1.6
			c0-0.6,0.1-1.2,0.4-1.6c0.2-0.5,0.6-0.8,1-1.1c0.4-0.3,1-0.4,1.5-0.4c0.6,0,1.1,0.1,1.5,0.4c0.4,0.2,0.8,0.6,1,1.1
			c0.2,0.5,0.4,1,0.4,1.6C170.3,9.9,170.3,10.1,170.3,10.3z M168.5,9.2c0-0.3-0.1-0.6-0.3-0.8s-0.5-0.3-0.8-0.3
			c-0.3,0-0.6,0.1-0.8,0.3c-0.2,0.2-0.3,0.4-0.4,0.8H168.5z"/>
	</g>
	<g>
		<path class="st2" d="M9.5,1.1c4.8,0,8.6,4,8.6,8.9c0,4.9-3.9,8.9-8.7,8.9c-4.8,0-8.6-4-8.6-8.9C0.9,5,4.8,1.1,9.5,1.1z"/>
		<path class="st3" d="M12.8,12.2c0.3,0,0.4,0.2,0.3,0.5c0,0.3,0,0.6,0,0.8c-0.4,0.1-0.7-0.1-0.9-0.4c-0.3-0.4-0.5-0.7-1.1-0.6
			c-0.1,0-0.3-0.1-0.4-0.2c-0.6-0.6-1.2-1.1-1.8-1.6c-0.1-0.1-0.4-0.4-0.5-0.2c-0.1,0.2,0.1,0.4,0.2,0.5c0.6,0.5,1.1,1,1.7,1.6
			c0.2,0.2,0.4,0.4,0.3,0.7c0,0.2,0,0.3,0.2,0.4c0.7,0.4,1.1,1.1,1.8,1.6c0.1,0.1,0.4,0.2,0.3,0.5C13,16,12.7,16,12.5,16.1
			c-0.4,0.1-0.7,0.4-1.1,0c-1.3,0-2.6-0.1-3.8,0c-0.4,0-0.7,0.1-1.1,0c-0.6-0.2-0.7-0.2-0.7-0.8c0-2.4,0-4.7,0-7.1
			c0-0.4,0.1-0.4,0.4-0.4c2.2,0,4.3,0,6.5,0c0.4,0,0.5,0.1,0.5,0.5c0,0.2,0.1,0.4-0.1,0.6c0,0-0.1,0.1-0.1,0.1
			c-0.4-0.2-0.8-0.1-1.1,0c0,0-0.1,0-0.1,0c-0.1,0-0.8,0.7-0.8,0.9c0,0.1,0,0.1,0,0.1c-0.4,0.4,0,0.8-0.1,1.2c0,0.1,0.7,0.9,0.8,0.9
			c0,0,0,0,0,0C12,12.2,12.4,12.1,12.8,12.2z"/>
		<path class="st4" d="M9.4,7.4c-1.1,0-2.2,0-3.3,0c-0.3,0-0.4-0.1-0.4-0.4c0-0.9,0-1.8,0-2.8c0-0.5,0.2-0.7,0.7-0.7c2,0,4,0,6,0
			c0.5,0,0.7,0.2,0.7,0.7c0,0.9,0,1.8,0,2.8c0,0.3-0.1,0.4-0.4,0.4C11.7,7.4,10.6,7.4,9.4,7.4z"/>
		<path class="st5" d="M13,13.7c0.2,0.2,0.4,0.4,0.6,0.6c0.5,0.5,0.4,0.8-0.1,1.2c-0.4,0.1-0.7,0-0.9-0.3c-0.3-0.4-0.8-0.6-1-1.1
			c-0.1-0.2-0.4-0.2-0.5-0.3c-0.2-0.2-0.4-0.4-0.3-0.7c0.1-0.2-0.1-0.3-0.2-0.4c-0.6-0.6-1.2-1.1-1.8-1.6C8.8,11,8.7,11,8.7,10.9
			c-0.1-0.1-0.2-0.3-0.1-0.4c0.1-0.1,0.3,0,0.4,0.1c0.5,0.5,1.1,1,1.6,1.5c0.1,0.1,0.3,0.3,0.4,0.4c0.1,0.1,0.2,0.2,0.3,0.1
			c0.3-0.2,0.6,0,0.8,0.2c0.2,0.3,0.4,0.5,0.7,0.7C12.9,13.5,13,13.6,13,13.7z"/>
		<path class="st6" d="M13.2,9c0.1,0.2,0,0.7,0.5,0.6c0,0,0.1,0.1,0.1,0.1c-0.3,0.4,0.2,0.8,0.1,0.9c-0.2,0.2-0.4,0.4-0.2,0.7
			c0,0.1-0.1,0.2-0.1,0.2c-0.4-0.1-0.5,0.1-0.5,0.5c0,0-0.1,0.1-0.2,0.1c-0.2,0-0.4-0.1-0.5,0.1c-0.1,0.1-0.2,0.1-0.3,0.1
			c-0.1-0.5-0.7,0-0.9-0.4c-0.1-0.2-0.1-0.5-0.4-0.5c-0.1,0-0.2-1.1-0.2-1.1c0.2-0.1,0.3-0.3,0.1-0.5c0-0.1,0-0.2,0.1-0.2
			c0.4,0,0.4-0.6,0.7-0.6c0.3,0,0.5,0.1,0.6-0.2c0.1-0.1,0.2,0,0.2,0C12.7,9.1,12.9,9,13.2,9z"/>
		<path class="st7" d="M13,13.7c-0.4-0.3-0.8-0.5-1.1-0.9c-0.1-0.2-0.3-0.4-0.6-0.1c-0.2,0.2-0.2,0-0.3-0.1
			c-0.6-0.6-1.2-1.1-1.9-1.7c-0.1-0.1-0.3-0.3-0.5-0.4c0,0.3,0.1,0.4,0.3,0.5c0.6,0.6,1.3,1.2,1.9,1.8c0.1,0.1,0.3,0.1,0.2,0.3
			c-0.3,0.6,0.1,0.7,0.4,0.8c0.2,0.1,0.3,0.2,0.4,0.4c0.5,0.5,0.9,1.2,1.7,1.2c-0.1,0.1-0.4,0.1-0.4,0.3c-0.4-0.3-0.7-0.7-1.1-1
			c-0.3-0.3-0.6-0.7-1.1-1c-0.2-0.1-0.4-0.4-0.2-0.7c0.1-0.2-0.1-0.3-0.1-0.3c-0.6-0.6-1.2-1.1-1.8-1.6c0,0,0,0,0,0
			c-0.1-0.2-0.6-0.4-0.3-0.7c0.3-0.3,0.5,0.1,0.7,0.2c0.6,0.5,1.2,1.1,1.8,1.7c0.1,0.1,0.2,0.2,0.3,0.2c0.6-0.3,0.8,0.1,1,0.5
			c0.2,0.3,0.5,0.4,0.9,0.5C13.2,13.7,13,13.6,13,13.7z"/>
		<path class="st8" d="M13.2,9c-0.3,0.1-0.5,0.3-0.7-0.2c0-0.1-0.2-0.1-0.2,0c0,0.1-0.1,0.1-0.1,0.2c-0.2,0.4-0.5-0.3-0.7,0
			c-0.1,0.2,0,0.5-0.4,0.5c-0.1,0-0.2,0.1-0.2,0.1c0.4,0.4-0.4,0.6-0.1,0.9c0,0,0.1,0,0.1,0.1c0.3,0.2-0.2,0.5,0,0.6
			c0.2,0.1,0.5,0,0.4,0.4c0,0.2,0.1,0.3,0.3,0.2c0.2-0.1,0.3-0.1,0.4,0.1c0.1,0.2,0.2,0.2,0.3,0c0.2-0.3,0.4-0.2,0.5,0
			c0,0-0.1,0.1-0.1,0.1c-0.1,0-0.2-0.1-0.2,0c0,0,0,0.1-0.1,0.1c-0.1,0.2-0.4,0.2-0.4,0.1c-0.2-0.5-0.9,0.1-1-0.5
			c0-0.2,0-0.3-0.2-0.3c-0.2,0-0.3-0.2-0.3-0.3c0.3-0.4-0.5-0.8,0-1.1c0.2-0.1,0.2-0.2,0.1-0.3c-0.1-0.2,0.1-0.4,0.1-0.4
			c0.5,0.1,0.4-0.8,0.9-0.6C12,8.9,12,8.9,12.1,8.8c0.2-0.2,0.4-0.2,0.6,0.1C12.8,9,12.9,9,13,8.9C13.1,8.9,13.1,9,13.2,9z"/>
		<path class="st9" d="M14.6,12.3c0,0.3-0.2,0.5-0.6,0.6c-0.3,0-0.6-0.3-0.6-0.6c0-0.3,0.2-0.6,0.6-0.6C14.4,11.7,14.6,12,14.6,12.3
			z"/>
		<path class="st10" d="M6.2,9.3c0-0.2,0-0.3,0-0.5c0-0.1,0-0.3,0.2-0.3c0.1,0,0.2,0.1,0.2,0.2c0,0.4,0,0.7,0,1.1
			c0,0.1-0.1,0.2-0.2,0.2c-0.2,0-0.2-0.1-0.2-0.3C6.2,9.7,6.2,9.5,6.2,9.3z"/>
		<path class="st11" d="M9.8,5.4c-0.2,0.1-0.2,0.2,0,0.3c0,0.1,0,0.1-0.1,0.1C9.5,5.8,9.5,5.8,9.6,6.1c0.1,0.3,0,0.6,0,0.8
			C9.5,7,9.4,7,9.4,7C9.2,6.8,9.2,6.6,9.2,6.5c0.1-0.2-0.1-0.4,0.1-0.6c0,0,0-0.1-0.1-0.2c0,0-0.1,0-0.1,0C9,5.9,9.1,6.2,8.8,6.1
			c0,0.2,0,0.2-0.2,0.2c-0.1,0-0.2,0.2-0.3,0.1C8.1,6.2,8.3,6.1,8.4,6C8.6,5.9,8.7,5.7,9,5.7c0.1,0,0.2-0.1,0.2-0.2
			c0-0.1-0.1-0.2-0.2-0.2C8.6,5.4,8.5,5.1,8.3,4.9c-0.1,0-0.1-0.1,0-0.2c0.1-0.1,0.1-0.1,0.2-0.1c0.1,0.2,0.4,0,0.4,0.3
			c0.2,0,0.3,0.2,0.4,0.3c0,0.1,0.1,0.1,0.1,0s0-0.2,0-0.2c-0.2-0.2,0-0.5,0-0.8c0-0.1,0.1-0.2,0.2-0.2c0.1,0,0.1,0.1,0.1,0.2
			c0.1,0.2,0,0.4,0.2,0.5c0,0.2-0.3,0.3,0,0.4C9.8,5.3,9.8,5.3,9.8,5.4C9.8,5.4,9.8,5.4,9.8,5.4z"/>
		<path class="st12" d="M6.2,5.7c0-0.2,0-0.3,0-0.5c0-0.1,0-0.2,0.1-0.3c0.2,0,0.3,0.1,0.3,0.2c0,0.4,0,0.8,0,1.2
			c0,0.1-0.1,0.2-0.3,0.2c-0.1,0-0.1-0.2-0.1-0.3C6.2,6,6.2,5.9,6.2,5.7z"/>
		<path class="st13" d="M12.7,6.6c-0.2-0.7-0.1-1.4-0.1-2c0-0.4-0.1-0.5-0.5-0.5c-0.4,0-0.9,0-1.4,0c-0.1,0-0.3,0.1-0.4-0.2
			c0.7,0,1.3,0,1.9,0c0.2,0,0.4-0.1,0.5,0.2c-0.1,0.7,0,1.3,0,2C12.8,6.2,12.8,6.4,12.7,6.6z"/>
		<path class="st14" d="M9.7,5.8C9.7,5.7,9.8,5.7,9.7,5.8c0.4-0.1,0.6,0,0.8,0.3c0.1,0.1,0.3,0.2,0.1,0.3c-0.1,0.2-0.4,0-0.5-0.1
			C9.9,6.2,9.7,6,9.7,5.8z"/>
		<path class="st15" d="M9.8,5.4c0,0,0-0.1,0-0.1C9.6,5,9.7,4.9,9.9,4.8c0.1,0.1,0.2-0.1,0.3-0.1c0.1,0,0.4-0.2,0.4,0
			c0.1,0.2-0.2,0.3-0.4,0.4C10.1,5.3,10,5.4,9.8,5.4z"/>
		<path class="st16" d="M12.7,6.6c0-0.7,0-1.4,0-2.1c0-0.2-0.1-0.3,0.1-0.4c0,0.8,0,1.6,0,2.4C12.8,6.5,12.8,6.6,12.7,6.6z"/>
		<path class="st17" d="M9.9,4.8c0,0.1-0.1,0.3-0.1,0.4C9.6,5.3,9.5,5.4,9.5,5.1c0-0.2,0.1-0.2,0.3-0.3C9.8,4.8,9.9,4.8,9.9,4.8z"/>
		<path class="st18" d="M12.1,14.1c0-0.2,0.2-0.1,0.3-0.2c0.5,0.2,0.9,0.7,1.3,1.1c-0.1,0.1-0.2,0.2-0.3,0.3
			C13,14.8,12.6,14.4,12.1,14.1z"/>
		<path class="st19" d="M13.6,14.9c-0.5-0.2-0.8-0.7-1.3-1.1c0-0.1,0.1-0.1,0.1-0.1C12.9,14.1,13.4,14.4,13.6,14.9z"/>
		<path class="st20" d="M12.1,14.1c0.1,0,0.1-0.1,0.2,0c0.4,0.4,0.9,0.6,1.1,1.1C12.8,15,12.5,14.5,12.1,14.1z"/>
		<path class="st21" d="M12.3,9.4c0.6,0,1,0.5,1.1,1.1c0,0.6-0.5,1.1-1.1,1.1c-0.6,0-1.1-0.5-1.1-1.1C11.3,9.9,11.7,9.4,12.3,9.4z"
			/>
		<path class="st22" d="M14.2,12.3c0,0.1-0.1,0.2-0.2,0.2c-0.1,0-0.2-0.1-0.2-0.2c0-0.1,0.1-0.2,0.2-0.2
			C14.2,12.1,14.2,12.2,14.2,12.3z"/>
	</g>
</g>
</svg>
